ModelForces
version=1
nRows=4
nColumns=155
inDegrees=no

This file contains the forces exerted on a model during a simulation.

A force is a generalized force, meaning that it can be either a force (N) or a torque (Nm).

Units are S.I. units (second, meters, Newtons, ...)
Angles are in degrees.

endheader
time	glut_med1_r	glut_med2_r	glut_med3_r	glut_min1_r	glut_min2_r	glut_min3_r	semimem_r	semiten_r	bifemlh_r	bifemsh_r	sar_r	add_long_r	add_brev_r	add_mag1_r	add_mag2_r	add_mag3_r	tfl_r	pect_r	grac_r	glut_max1_r	glut_max2_r	glut_max3_r	iliacus_r	psoas_r	quad_fem_r	gem_r	peri_r	rect_fem_r	vas_med_r	vas_int_r	vas_lat_r	med_gas_r	lat_gas_r	soleus_r	tib_post_r	flex_dig_r	flex_hal_r	tib_ant_r	per_brev_r	per_long_r	per_tert_r	ext_dig_r	ext_hal_r	glut_med1_l	glut_med2_l	glut_med3_l	glut_min1_l	glut_min2_l	glut_min3_l	semimem_l	semiten_l	bifemlh_l	bifemsh_l	sar_l	add_long_l	add_brev_l	add_mag1_l	add_mag2_l	add_mag3_l	tfl_l	pect_l	grac_l	glut_max1_l	glut_max2_l	glut_max3_l	iliacus_l	psoas_l	quad_fem_l	gem_l	peri_l	rect_fem_l	vas_med_l	vas_int_l	vas_lat_l	med_gas_l	lat_gas_l	soleus_l	tib_post_l	flex_dig_l	flex_hal_l	tib_ant_l	per_brev_l	per_long_l	per_tert_l	ext_dig_l	ext_hal_l	ercspn_r	ercspn_l	intobl_r	intobl_l	extobl_r	extobl_l	femur_lat_meniscii_r.femur_lat_r.force.X	femur_lat_meniscii_r.femur_lat_r.force.Y	femur_lat_meniscii_r.femur_lat_r.force.Z	femur_lat_meniscii_r.femur_lat_r.torque.X	femur_lat_meniscii_r.femur_lat_r.torque.Y	femur_lat_meniscii_r.femur_lat_r.torque.Z	femur_lat_meniscii_r.meniscus_lat_r.force.X	femur_lat_meniscii_r.meniscus_lat_r.force.Y	femur_lat_meniscii_r.meniscus_lat_r.force.Z	femur_lat_meniscii_r.meniscus_lat_r.torque.X	femur_lat_meniscii_r.meniscus_lat_r.torque.Y	femur_lat_meniscii_r.meniscus_lat_r.torque.Z	femur_med_meniscii_r.femur_med_r.force.X	femur_med_meniscii_r.femur_med_r.force.Y	femur_med_meniscii_r.femur_med_r.force.Z	femur_med_meniscii_r.femur_med_r.torque.X	femur_med_meniscii_r.femur_med_r.torque.Y	femur_med_meniscii_r.femur_med_r.torque.Z	femur_med_meniscii_r.meniscus_med_r.force.X	femur_med_meniscii_r.meniscus_med_r.force.Y	femur_med_meniscii_r.meniscus_med_r.force.Z	femur_med_meniscii_r.meniscus_med_r.torque.X	femur_med_meniscii_r.meniscus_med_r.torque.Y	femur_med_meniscii_r.meniscus_med_r.torque.Z	femur_med_tibia_r.tibia_upper_r.force.X	femur_med_tibia_r.tibia_upper_r.force.Y	femur_med_tibia_r.tibia_upper_r.force.Z	femur_med_tibia_r.tibia_upper_r.torque.X	femur_med_tibia_r.tibia_upper_r.torque.Y	femur_med_tibia_r.tibia_upper_r.torque.Z	femur_med_tibia_r.femur_med_r.force.X	femur_med_tibia_r.femur_med_r.force.Y	femur_med_tibia_r.femur_med_r.force.Z	femur_med_tibia_r.femur_med_r.torque.X	femur_med_tibia_r.femur_med_r.torque.Y	femur_med_tibia_r.femur_med_r.torque.Z	femur_lat_tibia_r.tibia_upper_r.force.X	femur_lat_tibia_r.tibia_upper_r.force.Y	femur_lat_tibia_r.tibia_upper_r.force.Z	femur_lat_tibia_r.tibia_upper_r.torque.X	femur_lat_tibia_r.tibia_upper_r.torque.Y	femur_lat_tibia_r.tibia_upper_r.torque.Z	femur_lat_tibia_r.femur_lat_r.force.X	femur_lat_tibia_r.femur_lat_r.force.Y	femur_lat_tibia_r.femur_lat_r.force.Z	femur_lat_tibia_r.femur_lat_r.torque.X	femur_lat_tibia_r.femur_lat_r.torque.Y	femur_lat_tibia_r.femur_lat_r.torque.Z	aACL_R	pACL_R	aPCL_R	pPCL_R	aMCL_R	mMCL_R	pMCL_R	aLCL_R	mLCL_R	pLCL_R	aPCL_L	pPCL_L	aMCL_L	aLCL_L
      0.16349231	     11.48154984	      8.38286873	      9.01666054	      3.86978189	      4.49698409	      4.87076336	      0.00000000	    167.11583308	    136.25608892	    293.62236674	    130.96743219	      8.34350882	      6.00597392	      3.08116922	      3.65575677	      6.16422280	      4.99878676	      3.26651078	    100.45095781	      5.41279187	      8.23432076	      6.18839514	     27.61577812	     18.60743439	      5.32185674	      3.66731119	      6.25295941	     53.01800273	     31.17274453	     33.29771709	     44.93387712	      0.00000000	      0.00000000	      0.00000000	      0.00000000	      0.00000000	      0.00000000	     33.90581609	      2.42783057	      2.95800720	      8.44988101	     41.57879747	     10.66098161	     11.48154984	      8.38286873	      9.01666054	      3.86978189	      4.49698409	      4.87076336	      0.00000000	      6.21383860	     12.26611631	     10.59252157	      2.20796394	      8.34350882	      6.00597392	      3.08116922	      3.65575677	      6.16422280	      5.44343270	      3.26651078	      2.27949591	      5.41279187	      8.23432076	      6.18839514	     27.61577812	     18.60743439	      5.32185674	      3.66731119	      6.25295941	     17.09476011	      0.00000000	      0.00000000	      0.00000000	     21.19457067	     10.01699147	     50.99140199	     51.08096078	      5.47120758	      4.89593397	     13.29843357	      7.11573308	     18.24781451	      2.87693185	      8.87597753	      2.78773977	     36.42540167	     36.42540167	     13.53899946	     13.53899946	     30.89689989	     30.89689989	     94.86821269	    179.21569163	     20.78833327	    -12.72741442	      2.29553002	     37.00201883	    -94.86821269	   -179.21569163	    -20.78833327	      4.97215721	     -2.86259142	      3.27796315	     23.13071128	     21.59813851	     12.10223208	     -4.38918889	     -0.53193864	      9.28846857	    -23.13071128	    -21.59813851	    -12.10223208	     -0.25056119	      0.25027766	      0.08204024	   -753.06850315	   -698.21560644	    221.46130254	    -16.18727913	     17.03613385	     -1.34842366	    753.06850315	    698.21560644	   -221.46130254	    102.74193663	    -13.65800999	    306.32380484	      0.00000000	      0.00000000	      0.00000000	      0.00000000	      0.00000000	      0.00000000	      0.00000000	      0.00000000	      0.00000000	      0.00000000	      0.00000000	      0.00000000	     -3.58205032	      0.00000000	    569.11054332	    371.28836483	      0.00000000	      0.00000000	      0.00000000	      0.00000000	      0.00000000	      0.00000000	      0.00000000	      0.00000000	      0.00000001	      0.00000000
      0.16375771	     11.46863639	      8.37336832	      9.00631974	      3.86557559	      4.49238086	      4.86488562	      0.00000000	    167.15471367	    136.31496119	    293.70133628	    130.95612091	      8.33394445	      5.99950640	      3.18854677	      3.65153877	      6.15658023	      4.99008537	      3.26293483	    100.43568442	      5.40663268	      8.22493001	      6.18122865	     27.59826641	     18.58746314	      5.31594630	      3.66442237	      6.25024678	     53.24091925	     31.17371188	     33.29694355	     44.92900912	      0.00000000	      0.00000000	      0.00000000	      0.00000000	      0.00000000	      0.00000000	     33.94902804	      2.41805581	      2.95753066	     28.25629870	     41.76354297	     10.70574881	     11.46863639	      8.37336832	      9.00631974	      3.86557559	      4.49238086	      4.86488562	      0.00000000	      6.20635246	     12.25171644	     10.58074393	      2.20557517	      8.33394445	      5.99950640	      3.18854677	      3.65153877	      6.15658023	      5.43872482	      3.26293483	      2.27698644	      5.40663268	      8.22493001	      6.18122865	     27.59826641	     18.58746314	      5.31594630	      3.66442237	      6.25024678	     17.07270723	      0.00000000	      0.00000000	      0.00000000	     21.18847017	     10.01316727	     50.93912051	     51.05306871	      5.46530899	      4.89061149	     13.28227110	      7.10657103	     18.23076156	      2.87385544	      8.86390588	      2.78410247	     36.38571994	     36.38571994	     13.52306739	     13.52306739	     30.88245228	     30.88245228	     95.48021593	    179.31209126	     20.83883042	    -12.75172453	      2.30845045	     37.24528876	    -95.48021593	   -179.31209126	    -20.83883042	      4.97703806	     -2.87888784	      3.28553982	     23.32774019	     21.53841753	     11.96248409	     -4.33393879	     -0.53547681	      9.36588221	    -23.32774019	    -21.53841753	    -11.96248409	     -0.25232621	      0.25567952	      0.08145234	   -756.65593667	   -696.64844473	    221.44103664	    -16.14010152	     17.09430684	     -1.38316812	    756.65593667	    696.64844473	   -221.44103664	    102.69603646	    -13.71413046	    307.77559510	      0.00000000	      0.00000000	      0.00000000	      0.00000000	      0.00000000	      0.00000000	      0.00000000	      0.00000000	      0.00000000	      0.00000000	      0.00000000	      0.00000000	     -3.55307568	      0.00000000	    571.81982413	    372.53024437	      0.00000000	      0.00000000	      0.00000000	      0.00000000	      0.00000000	      0.00000000	      0.00000000	      0.00000000	      0.00000001	      0.00000000
      0.16398001	     11.45783962	      8.36543688	      8.99768678	      3.86206384	      4.48853783	      4.85997833	      0.00000000	    167.18227889	    136.36595811	    293.76275708	    130.94355053	      8.32595969	      5.99410676	      3.26932436	      3.64801737	      6.15019978	      4.98265543	      3.25994936	    100.41985558	      5.40149076	      8.21709025	      6.17524583	     27.58364743	     18.57079102	      5.31101190	      3.66201083	      6.24795212	     53.42588363	     31.16647593	     33.29032842	     44.91930139	      0.00000000	      0.00000000	      0.00000000	      0.00000000	      0.00000000	      0.00000000	     33.98484214	      2.40996060	      2.95716472	     22.19405994	     41.91305700	     10.74087990	     11.45783962	      8.36543688	      8.99768678	      3.86206384	      4.48853783	      4.85997833	      0.00000000	      6.20010274	     12.23967771	     10.57091124	      2.20358084	      8.32595969	      5.99410676	      3.26932436	      3.64801737	      6.15019978	      5.43479421	      3.25994936	      2.27489136	      5.40149076	      8.21709025	      6.17524583	     27.58364743	     18.57079102	      5.31101190	      3.66201083	      6.24795212	     17.05429283	      0.00000000	      0.00000000	      0.00000000	     21.18329249	     10.00993442	     50.89534132	     51.02976197	      5.46035254	      4.88613086	     13.26876779	      7.09891772	     18.21650302	      2.87128721	      8.85389093	      2.78109186	     36.35259057	     36.35259057	     13.50976669	     13.50976669	     30.87039139	     30.87039139	     96.85644417	    178.41546316	     20.23804845	    -12.47461560	      2.34276185	     37.81668333	    -96.85644417	   -178.41546316	    -20.23804845	      4.93049677	     -2.90417812	      3.23776273	     23.12304686	     21.28511245	     11.86275800	     -4.30063778	     -0.52791836	      9.28051925	    -23.12304686	    -21.28511245	    -11.86275800	     -0.24781956	      0.24989746	      0.08424217	   -758.63279788	   -696.17862798	    221.66588738	    -16.11801881	     17.13538662	     -1.35842606	    758.63279788	    696.17862798	   -221.66588738	    102.76972010	    -13.74704584	    308.55821146	      0.00000000	      0.00000000	      0.00000000	      0.00000000	      0.00000000	      0.00000000	      0.00000000	      0.00000000	      0.00000000	      0.00000000	      0.00000000	      0.00000000	     -3.56143624	      0.00000000	    574.10368447	    373.63549295	      0.00000000	      0.00000000	      0.00000000	      0.00000000	      0.00000000	      0.00000000	      0.00000000	      0.00000000	      0.00000001	      0.00000000
      0.16427163	     11.44370339	      8.35506806	      8.98640095	      3.85747276	      4.48351379	      4.85356267	      0.00000000	    167.21127756	    136.43624429	    293.84477330	    130.92248881	      8.31552126	      5.98704746	      3.36420494	      3.64341383	      6.14185853	      4.97269769	      3.25604635	    100.39477861	      5.39476880	      8.20684146	      6.16742462	     27.56453692	     18.54899674	      5.30456104	      3.65885846	      6.24491103	     53.67025884	     31.15718686	     33.28236530	     44.90763880	      0.00000000	      0.00000000	      0.00000000	      0.00000000	      0.00000000	      0.00000000	     34.03181409	      2.39921357	      2.95650650	     23.66413908	     42.10754156	     10.78660992	     11.44370339	      8.35506806	      8.98640095	      3.85747276	      4.48351379	      4.85356267	      0.00000000	      6.19193259	     12.22391627	     10.55805677	      2.20097353	      8.31552126	      5.98704746	      3.36420494	      3.64341383	      6.14185853	      5.42965538	      3.25604635	      2.27215238	      5.39476880	      8.20684146	      6.16742462	     27.56453692	     18.54899674	      5.30456104	      3.65885846	      6.24491103	     17.03021479	      0.00000000	      0.00000000	      0.00000000	     21.17640693	     10.00565273	     50.83792806	     50.99926425	      5.45382828	      4.88022149	     13.25110119	      7.08890654	     18.19783285	      2.86792992	      8.84088540	      2.77719190	     36.30927898	     36.30927898	     13.49237888	     13.49237888	     30.85462513	     30.85462513	     97.33054053	    179.34722766	     20.24689741	    -12.50258278	      2.35144069	     37.99132809	    -97.33054053	   -179.34722766	    -20.24689741	      4.95640628	     -2.91530019	      3.27919638	     23.25164812	     21.10257623	     11.75887129	     -4.26277018	     -0.52956069	      9.33124177	    -23.25164812	    -21.10257623	    -11.75887129	     -0.24625879	      0.25272782	      0.08158698	   -761.58018664	   -695.15104836	    221.57641259	    -16.07242020	     17.18159602	     -1.34870132	    761.58018664	    695.15104836	   -221.57641259	    102.70071802	    -13.79100046	    309.73609003	      0.00000000	      0.00000000	      0.00000000	      0.00000000	      0.00000000	      0.00000000	      0.00000000	      0.00000000	      0.00000000	      0.00000000	      0.00000000	      0.00000000	     -3.53823273	      0.00000000	    577.06112282	    375.00978314	      0.00000000	      0.00000000	      0.00000000	      0.00000000	      0.00000000	      0.00000000	      0.00000000	      0.00000000	      0.00000001	      0.00000000
